# xmcd
#
# Track frame offsets:
#	150
#	21107
#	34160
#	51715
#	63477
#	73200
#	84775
#	96270
#	111332
#	122705
#	135312
#	146737
#	162990
#	175460
#	187910
#	201557
#	218335
#	230120
#	245480
#	262120
#
# Disc length: 3685 seconds
#
# Revision: 1
# Processed by: cddbd v1.5.1PL0 Copyright (c) Steve Scherf et al.
# Submitted via: EasyCDDAExtractor 7.0.6.1
#
DISCID=330e6314
DTITLE=Various Artist - Marty Robbins and Johnn Cash 20 Greatest Hits
DYEAR=1900
DGENRE=Country
TTITLE0=Marty Robbins - El Paso
TTITLE1=Marty Robbins - Devil Woman
TTITLE2=Marty Robbins - Big Iron
TTITLE3=Marty Robbins - 18 Yellow Roses
TTITLE4=Marty Robbins - Just Married
TTITLE5=Marty Robbins - Story of My Life
TTITLE6=Marty Robbins - Ribbon of Darkness
TTITLE7=Marty Robbins - Padre
TTITLE8=Marty Robbins - White Sports Coat
TTITLE9=Marty Robbins - Streets of Laredo
TTITLE10=Johnny Cash - I Walk the Line
TTITLE11=Johnny Cash - The Baron
TTITLE12=Johnny Cash - Folsom Prison Blues
TTITLE13=Johnny Cash - Jackson
TTITLE14=Johnny Cash - Don't Take Your Guns to Town
TTITLE15=Johnny Cash - Ghost Riders in the Sky
TTITLE16=Johnny Cash - Ring of Fire
TTITLE17=Johnny Cash - The Night They Drove Old Dixie Down
TTITLE18=Johnny Cash - A Boy Named Sue
TTITLE19=Marty Robbins - Danny Boy
EXTD=
EXTT0=
EXTT1=
EXTT2=
EXTT3=
EXTT4=
EXTT5=
EXTT6=
EXTT7=
EXTT8=
EXTT9=
EXTT10=
EXTT11=
EXTT12=
EXTT13=
EXTT14=
EXTT15=
EXTT16=
EXTT17=
EXTT18=
EXTT19=
PLAYORDER=
